<svg xmlns="http://www.w3.org/2000/svg" width="320" height="336"><style>line, path, circle, rect, polygon{stroke:black;stroke-width:2;stroke-opacity:1;fill-opacity:1;stroke-linecap:round;stroke-linejoin:miter;}text{font-family:Iosevka Fixed, monospace;font-size:14px;}rect.backdrop{stroke:none;fill:white;}.broken{stroke-dasharray:8;}.filled{fill:black;}.bg_filled{fill:white;}.nofill{fill:white;}.end_marked_arrow{marker-end:url(#arrow);}.start_marked_arrow{marker-start:url(#arrow);}.end_marked_diamond{marker-end:url(#diamond);}.start_marked_diamond{marker-start:url(#diamond);}.end_marked_circle{marker-end:url(#circle);}.start_marked_circle{marker-start:url(#circle);}.end_marked_open_circle{marker-end:url(#open_circle);}.start_marked_open_circle{marker-start:url(#open_circle);}.end_marked_big_open_circle{marker-end:url(#big_open_circle);}.start_marked_big_open_circle{marker-start:url(#big_open_circle);}<!--separator--></style><defs><marker id="arrow" viewBox="-2 -2 8 8" refX="4" refY="2" markerWidth="7" markerHeight="7" orient="auto-start-reverse"><polygon points="0,0 0,4 4,2 0,0"></polygon></marker><marker id="diamond" viewBox="-2 -2 8 8" refX="4" refY="2" markerWidth="7" markerHeight="7" orient="auto-start-reverse"><polygon points="0,2 2,0 4,2 2,4 0,2"></polygon></marker><marker id="circle" viewBox="0 0 8 8" refX="4" refY="4" markerWidth="7" markerHeight="7" orient="auto-start-reverse"><circle cx="4" cy="4" r="2" class="filled"></circle></marker><marker id="open_circle" viewBox="0 0 8 8" refX="4" refY="4" markerWidth="7" markerHeight="7" orient="auto-start-reverse"><circle cx="4" cy="4" r="2" class="bg_filled"></circle></marker><marker id="big_open_circle" viewBox="0 0 8 8" refX="4" refY="4" markerWidth="7" markerHeight="7" orient="auto-start-reverse"><circle cx="4" cy="4" r="3" class="bg_filled"></circle></marker></defs><rect class="backdrop" x="0" y="0" width="320" height="336"></rect><rect x="12" y="264" width="208" height="32" class="solid nofill" rx="0"></rect><text x="26" y="284" >'USBscanner'</text><text x="138" y="284" >library</text><text x="42" y="12" >AVATeR</text><text x="98" y="12" >0.13.x</text><text x="154" y="12" >program</text><text x="218" y="12" >setup</text><text x="146" y="60" >Annotation</text><text x="234" y="60" >Viewer</text><text x="146" y="92" >Annotation</text><text x="234" y="92" >Exporter</text><text x="146" y="124" >Tools</text><line x1="0" y1="168" x2="104" y2="168" class="broken"></line><line x1="112" y1="168" x2="312" y2="168" class="broken"></line><text x="26" y="220" >ReaderManager</text><text x="138" y="220" >library</text><text x="26" y="92" >AVATeR</text><text x="82" y="92" >UI</text><text x="250" y="236" >AVATeR</text><text x="242" y="268" >backend</text><g><line x1="4" y1="24" x2="308" y2="24" class="solid"></line><line x1="4" y1="24" x2="4" y2="152" class="solid"></line><line x1="308" y1="24" x2="308" y2="152" class="solid"></line><line x1="4" y1="152" x2="308" y2="152" class="solid"></line><line x1="124" y1="152" x2="124" y2="180" class="solid"></line><polygon points="120,180 128,180 124,192" class="filled"></polygon></g><g><line x1="132" y1="40" x2="300" y2="40" class="solid"></line><line x1="132" y1="40" x2="132" y2="136" class="solid"></line><line x1="300" y1="40" x2="300" y2="136" class="solid"></line><line x1="132" y1="72" x2="300" y2="72" class="solid"></line><line x1="132" y1="104" x2="300" y2="104" class="solid"></line><line x1="132" y1="136" x2="300" y2="136" class="solid"></line></g><g><polygon points="104,172 108,160 112,172" class="filled"></polygon><line x1="108" y1="172" x2="108" y2="200" class="solid"></line><line x1="12" y1="200" x2="220" y2="200" class="solid"></line><line x1="12" y1="200" x2="12" y2="232" class="solid"></line><line x1="220" y1="200" x2="220" y2="232" class="solid"></line><line x1="12" y1="232" x2="220" y2="232" class="solid"></line></g><g><line x1="4" y1="184" x2="120" y2="184" class="solid"></line><line x1="4" y1="184" x2="4" y2="312" class="solid"></line><line x1="128" y1="184" x2="308" y2="184" class="solid"></line><line x1="308" y1="184" x2="308" y2="312" class="solid"></line><line x1="4" y1="312" x2="308" y2="312" class="solid"></line></g><g><polygon points="104,252 108,240 112,252" class="filled"></polygon><line x1="108" y1="252" x2="108" y2="256" class="solid"></line></g></svg>